<svg width="44" height="22" viewBox="0 0 44 22" fill="none" xmlns="http://www.w3.org/2000/svg">
<g clip-path="url(#clip0_8_61)">
<mask id="mask0_8_61" style="mask-type:alpha" maskUnits="userSpaceOnUse" x="0" y="0" width="44" height="22">
<path fill-rule="evenodd" clip-rule="evenodd" d="M26.2933 7H0V22H44V7H36.0895L38.1283 11.1423L33.3681 9.75876L30.6108 13.8785L29.4288 9.06417L24.4824 8.73615L26.2933 7ZM28.7806 20H29.8024L30.3295 16.4494L30.3297 16.4494L30.3311 16.438C30.3624 16.1878 30.5751 16 30.8272 16H31.4985C31.7553 16 31.9595 16.2158 31.9452 16.4723L32.9437 16.5277C32.9898 15.6981 32.3294 15 31.4985 15H30.8272C30.6832 15 30.5434 15.0204 30.4108 15.0587L29.505 14.9293L28.7806 20ZM32.9355 20H33.9395L34.1732 17.383L34.5274 17.6192C34.6665 17.7119 34.75 17.868 34.75 18.0352V18.5C34.75 19.326 35.4175 19.996 36.2425 20H36.7562C37.3057 19.9966 37.75 19.5502 37.75 19L36.75 19L36.25 19C35.9739 19 35.75 18.7762 35.75 18.5V18.0352C35.75 17.5337 35.4993 17.0653 35.082 16.7871L34.9036 16.6682L37.147 15.9779L36.853 15.0221L34.3147 15.8031L34.698 11.5448L33.702 11.4552L33.252 16.4552L33.252 16.4555L32.9355 20ZM39.2439 20H40.4766C41.1618 19.9966 41.7581 19.5292 41.9244 18.8638C42.1611 17.9171 41.4451 17 40.4692 17L40.0308 17C39.7055 17 39.4668 16.6943 39.5457 16.3787C39.6014 16.1562 39.8013 16 40.0308 16H41.25L42.25 16C42.25 15.4477 41.8023 15 41.25 15H40.0308C39.3425 15 38.7425 15.4685 38.5756 16.1362C38.3389 17.0829 39.0549 18 40.0308 18L40.4692 18C40.7945 18 41.0332 18.3057 40.9543 18.6213C40.8986 18.8439 40.6987 19 40.4692 19H39.25L38.25 19C38.25 19.5503 38.6944 19.9967 39.2439 20ZM7.13968 12.5C6.42466 12.5 5.80903 13.0047 5.66881 13.7058L5.40998 15H6L6.5 15L6 16H5.20999L4.81196 17.9903C4.57825 19.1588 3.55222 20 2.36052 20L2 20L1.99999 19L2.36051 19C3.07553 19 3.69115 18.4953 3.83137 17.7942L4.19019 16L3.5 16L3 16L3.5 15H4.39018L4.68823 13.5097C4.92193 12.3411 5.94797 11.5 7.13968 11.5H7.49998V12.5H7.13968ZM8.43366 16L7 16L7 15L9.00006 15L9.56646 15L9.4962 15.562L9.0664 19H10L10.5579 19L11.0593 14.9387L11.9861 15.0532C12.1128 15.0185 12.2458 15 12.3828 15H13.054C13.885 15 14.5453 15.6981 14.4992 16.5277L13.5008 16.4723C13.515 16.2158 13.3109 16 13.054 16L12.3828 16C12.1306 16 11.9179 16.1878 11.8866 16.438L11.4962 19.5613L11.4961 19.562L11.4414 20L11 20L10 20L8.5 20L7 20L7 19H8.05862L8.43366 16ZM14.8944 16.3139C14.9882 15.5633 15.6263 15 16.3828 15L17.2192 15C18.1951 15 18.9111 15.9171 18.6744 16.8638C18.5075 17.5316 17.9075 18 17.2192 18H15.6914L15.6366 18.438C15.5993 18.7364 15.832 19 16.1328 19L18.5 19L19 19L18.5 20L16.1328 20C15.2305 20 14.5325 19.2092 14.6444 18.3139L14.7539 17.438L14.8944 16.3139ZM15.8164 17H17.2192C17.4487 17 17.6486 16.8439 17.7043 16.6213C17.7832 16.3057 17.5445 16 17.2192 16H16.3828C16.1306 16 15.9179 16.1878 15.8866 16.438L15.8164 17ZM26.7808 16C26.5513 16 26.3513 16.1561 26.2957 16.3787L25.7957 18.3787C25.7168 18.6943 25.9555 19 26.2808 19H26.7192C26.9487 19 27.1486 18.8439 27.2043 18.6213L27.7043 16.6213C27.7832 16.3057 27.5445 16 27.2192 16H26.7808ZM25.3256 16.1362C25.4925 15.4684 26.0925 15 26.7808 15L27.2192 15C28.1951 15 28.9111 15.9171 28.6744 16.8638L28.1744 18.8638C28.0075 19.5316 27.4075 20 26.7192 20L26.2808 20C25.3049 20 24.5889 19.0829 24.8256 18.1362L25.3256 16.1362ZM19.0058 14H17.998L18.009 13.9124C17.8363 13.9693 17.6521 14 17.4615 14L17.0961 14C16.2145 14 15.5763 13.1587 15.8138 12.3097L15.8372 12.2258C16.0061 11.622 16.5563 11.2046 17.1833 11.2046H18.0811C18.1721 11.2046 18.2605 11.2153 18.3449 11.2356L18.3666 11.0622C18.4041 10.7637 18.1714 10.5 17.8705 10.5L17.4142 10.5C17.2816 10.5 17.1544 10.5527 17.0607 10.6464L16.8536 10.8536L16.1465 10.1464L16.3536 9.93934C16.6349 9.65803 17.0164 9.5 17.4142 9.5L17.8705 9.5C18.773 9.49999 19.4712 10.2912 19.3588 11.1868L19.0058 14ZM20.4044 14H19.3956L20.0044 9.43392L20.5 9.49999L21.347 9.5C21.7393 9.5 22.0925 9.64931 22.3575 9.89132C22.6237 9.64708 22.978 9.5 23.3626 9.5C24.2672 9.5 24.962 10.3012 24.8341 11.1967L24.4336 14H23.4235L23.8442 11.0553C23.886 10.7622 23.6586 10.5 23.3626 10.5C23.1211 10.5 22.9162 10.6771 22.8812 10.916L22.5886 12.9155L22.5885 12.9163L22.4336 14H21.4235L21.599 12.7715L21.842 11.0707C21.885 10.7695 21.6513 10.5 21.347 10.5L20.8711 10.5L20.4044 14ZM10.5031 8.94478L10.3858 10L9.50001 10L9.50001 11L10.2747 11L10.1265 12.3344C10.0277 13.2229 10.7233 14 11.6173 14L11.981 14L11.981 13L11.6173 13C11.3193 13 11.0874 12.741 11.1203 12.4448L11.2809 11L12.3384 11L12.3384 10L11.392 10L11.4969 9.0552L10.5031 8.94478ZM14.1756 9.49999C13.4333 9.49999 12.8039 10.0459 12.6989 10.7807L12.5705 11.6793L12.4836 12.2879C12.3545 13.1915 13.0557 14 13.9685 14L15 14L15 14V14L15.5 13H15L13.9685 13C13.6643 13 13.4305 12.7305 13.4736 12.4293L13.5006 12.2399L14.3837 12.2192C14.9753 12.2053 15.49 11.8104 15.6566 11.2425C15.912 10.3718 15.2592 9.49999 14.3518 9.49999L14.1756 9.49999ZM14.3603 11.2195L13.644 11.2363L13.6889 10.9222C13.7235 10.6799 13.9309 10.5 14.1756 10.5H14.3518C14.5919 10.5 14.7646 10.7307 14.697 10.961C14.653 11.1113 14.5168 11.2158 14.3603 11.2195ZM16.8003 12.4952C16.8483 12.3234 17.0049 12.2046 17.1833 12.2046H18.0811C18.156 12.2046 18.2139 12.2703 18.2046 12.3446C18.1574 12.7191 17.8389 13 17.4615 13L17.0961 13C16.8766 13 16.7177 12.7905 16.7768 12.5791L16.8003 12.4952ZM9.005 13.375C8.65982 13.375 8.38 13.6548 8.38 14C8.38 14.3452 8.65982 14.625 9.005 14.625C9.35018 14.625 9.63 14.3452 9.63 14C9.63 13.6548 9.35018 13.375 9.005 13.375ZM19.5 20V15H20.5V18.5L21.5 15H23V18.5L24 15H25L23.5 20H22.5L22.25 16L20.5 20H19.5Z" fill="white"/>
<path d="M32.7729 1.61677L33.3214 3.85089L33.4305 4.29523L33.887 4.3255L36.1825 4.47772L34.5219 6.0698L34.1916 6.38645L34.3937 6.79695L35.4096 8.86096L33.2005 8.21892L32.7612 8.09122L32.5067 8.47145L31.2271 10.3832L30.6786 8.14912L30.5695 7.70478L30.113 7.67451L27.8176 7.52229L29.4781 5.93021L29.8084 5.61356L29.6063 5.20306L28.5905 3.13905L30.7995 3.78109L31.2389 3.90879L31.4934 3.52856L32.7729 1.61677Z" stroke="white" stroke-width="1.25"/>
</mask>
<g mask="url(#mask0_8_61)">
<rect width="44" height="22" fill="url(#paint0_radial_8_61)"/>
<g style="mix-blend-mode:screen" opacity="0.75">
<rect width="44" height="22" fill="url(#paint1_radial_8_61)"/>
</g>
</g>
</g>
<defs>
<radialGradient id="paint0_radial_8_61" cx="0" cy="0" r="1" gradientUnits="userSpaceOnUse" gradientTransform="translate(38.5 4.5) rotate(141.132) scale(43.0262 86.0523)">
<stop stop-color="#0080FF"/>
<stop offset="0.33333" stop-color="#FF0080"/>
<stop offset="0.67" stop-color="#FF8000"/>
<stop offset="1" stop-color="#00FF80"/>
</radialGradient>
<radialGradient id="paint1_radial_8_61" cx="0" cy="0" r="1" gradientUnits="userSpaceOnUse" gradientTransform="translate(8.5 6.5) rotate(90) scale(21.5 43)">
<stop stop-color="#0080FF"/>
<stop offset="0.33333" stop-color="#FF0080"/>
<stop offset="0.67" stop-color="#FF8000"/>
<stop offset="1" stop-color="#00FF80"/>
</radialGradient>
<clipPath id="clip0_8_61">
<rect width="44" height="22" fill="white"/>
</clipPath>
</defs>
</svg>
