<svg width="21" height="21" viewBox="0 0 21 21" fill="none" xmlns="http://www.w3.org/2000/svg">
<g clip-path="url(#clip0_14_151)">
<path d="M12.3481 0.736482L13.8255 6.75434L20.0085 7.16436L15.5356 11.4528L18.272 17.0124L12.3217 15.283L8.87511 20.4326L7.39766 14.4148L1.21467 14.0048L5.68756 9.71632L2.95115 4.15668L8.90149 5.8861L12.3481 0.736482Z" fill="url(#paint0_linear_14_151)" fill-opacity="0.25"/>
<path fill-rule="evenodd" clip-rule="evenodd" d="M4.86392 10.9814C4.6278 11.5145 4.5 12.099 4.5 12.7023V13.9493C4.5 15.4674 6.12496 16.4321 7.45771 15.7051L14.2851 11.981C14.4635 11.8837 14.633 11.7748 14.793 11.6553C14.6648 11.3442 14.4803 11.0584 14.2484 10.813C14.1105 10.9205 13.9628 11.0177 13.8063 11.1031L6.97885 14.8272C6.31247 15.1907 5.5 14.7084 5.5 13.9493V12.7023C5.5 12.401 5.54168 12.1059 5.62089 11.8238C5.33429 11.5729 5.08056 11.2897 4.86392 10.9814ZM6.75159 10.1392C6.51969 9.89383 6.3352 9.60805 6.20704 9.29688C6.36702 9.17745 6.53655 9.06847 6.71487 8.97121L13.5423 5.24716C14.8751 4.5202 16.5 5.48483 16.5 7.00295V8.24996C16.5 8.85317 16.3722 9.4377 16.1361 9.97073C15.9194 9.66246 15.6657 9.3793 15.3791 9.12837C15.4583 8.84632 15.5 8.55118 15.5 8.24996V7.00295C15.5 6.24388 14.6875 5.76157 14.0211 6.12505L7.19373 9.8491C7.0372 9.93448 6.88952 10.0317 6.75159 10.1392Z" fill="url(#paint1_linear_14_151)"/>
<path fill-rule="evenodd" clip-rule="evenodd" d="M5.5 7.00283C5.5 6.24376 6.31247 5.76145 6.97885 6.12493L8.9337 7.19121L9.97788 6.62168L7.4577 5.24703C6.12495 4.52008 4.5 5.48471 4.5 7.00283V8.24989C4.5 9.80515 5.34952 11.2362 6.71487 11.9809L8.93376 13.1912L9.97792 12.6217L7.19373 11.1031C6.14964 10.5335 5.5 9.4392 5.5 8.24989V7.00283ZM12.0663 13.7608L11.0221 14.3303L13.5423 15.705C14.8751 16.4319 16.5 15.4673 16.5 13.9492V12.7021C16.5 11.1469 15.6505 9.71583 14.2851 8.97108L12.0662 7.76076L11.022 8.3303L13.8063 9.84898C14.8504 10.4185 15.5 11.5128 15.5 12.7021V13.9492C15.5 14.7083 14.6875 15.1906 14.0211 14.8271L12.0663 13.7608Z" fill="url(#paint2_linear_14_151)"/>
</g>
<defs>
<linearGradient id="paint0_linear_14_151" x1="12.3481" y1="0.736482" x2="8.87511" y2="20.4326" gradientUnits="userSpaceOnUse">
<stop stop-color="#FF8000"/>
<stop offset="1" stop-color="#FF0080"/>
</linearGradient>
<linearGradient id="paint1_linear_14_151" x1="10.5" y1="5.00012" x2="10.5" y2="15.9521" gradientUnits="userSpaceOnUse">
<stop stop-color="#FF8000"/>
<stop offset="1" stop-color="#FF0080"/>
</linearGradient>
<linearGradient id="paint2_linear_14_151" x1="10.5" y1="5" x2="10.5" y2="15.952" gradientUnits="userSpaceOnUse">
<stop stop-color="#FF8000"/>
<stop offset="1" stop-color="#FF0080"/>
</linearGradient>
<clipPath id="clip0_14_151">
<rect width="21" height="21" fill="white"/>
</clipPath>
</defs>
</svg>
